<svg xmlns="http://www.w3.org/2000/svg" viewBox="0 0 717 526.5"><style>.a{fill:none;stroke:#414042;}.b{fill:#00AEEF;}.c{fill:none;stroke-width:5;stroke:#F1F2F2;}.d{fill:none;stroke-width:2;stroke:#808285;}</style><path d="M9.1 515.4V35.8c0-13.7 11.1-24.7 24.7-24.7h650c13.7 0 24.7 11.1 24.7 24.7v479.6" class="a"/><line x1="8.5" y1="514.5" x2="708" y2="514.5" style="fill:none;stroke:#000"/><rect x="34.5" y="61.9" width="648.6" height="426" class="a"/><rect x="34.5" y="61.9" width="648.6" height="118.2" class="b"/><line x1="340.6" y1="102.7" x2="612.7" y2="102.7" class="c"/><line x1="340.6" y1="143.5" x2="542.6" y2="143.5" class="c"/><rect x="228.4" y="28.2" width="453.8" height="19.3" style="fill:none;stroke:#808285"/><rect x="300" y="220.5" width="85.5" height="85.5" class="d"/><rect x="414.4" y="220.5" width="85.5" height="85.5" class="b"/><rect x="528.7" y="220.5" width="85.5" height="85.5" class="d"/><rect x="300" y="327.9" width="85.5" height="85.5" class="b"/><rect x="414.4" y="327.9" width="85.5" height="85.5" class="d"/><rect x="528.7" y="327.9" width="85.5" height="85.5" class="b"/><text transform="matrix(1 0 0 1 87.481 296.8682)"><tspan font-family="sans-serif" font-size="48" class="b">Jekyll </tspan><tspan x="-26.7" y="57.6" font-family="sans-serif" font-size="48" class="b">collection</tspan></text><text transform="matrix(1 0 0 1 74.834 134.3765)" font-family="sans-serif" font-weight="bold" font-size="56" fill="#FFF">WJ</text></svg>