<svg version="1.1" xmlns="http://www.w3.org/2000/svg" xmlns:xlink="http://www.w3.org/1999/xlink" x="0px" y="0px" width="800px" height="697px"
	 viewBox="0 0 800 697" enable-background="new 0 0 800 697" xml:space="preserve" font-family="'Helvetica'">
<rect fill="#FFF9C4" width="800" height="697"/>
<text transform="matrix(1 0 0 1 186.4678 107)"  font-weight="bold" font-size="67">Site Variables</text>
<text transform="matrix(1 0 0 1 103.1416 202)"><tspan x="0" y="0" font-weight="bold"  font-size="24">Link: </tspan><tspan x="64.617" y="0" fill="#47A5DC" font-weight="bold" font-size="25">https://blog.webjeda.com/create-jekyll-blog/</tspan></text>
<path fill="#99D4F4" d="M733.222,599.658c0,2.397-1.791,4.342-4,4.342h-631c-2.209,0-4-1.944-4-4.342V265.342
	c0-2.398,1.791-4.342,4-4.342h631c2.209,0,4,1.944,4,4.342V599.658z"/>
<text transform="matrix(1 0 0 1 121.5347 315)"><tspan x="0" y="0" font-size="25">{{ site.url }} </tspan><tspan x="137" y="0" font-size="25">	</tspan><tspan x="144" y="0" font-size="25">- </tspan><tspan x="158.539" y="0" font-size="25" letter-spacing="14">	</tspan><tspan x="180" y="0" font-size="25">https://blog.webjeda.com</tspan><tspan x="0" y="36" font-size="25">{{ page.url }} </tspan><tspan x="152.844" y="36" font-size="25" letter-spacing="20">	</tspan><tspan x="180" y="36" font-size="25">-</tspan><tspan x="188.044" y="36" font-size="25" letter-spacing="21">	</tspan><tspan x="216" y="36" font-size="25">/create-jekyll-blog/</tspan><tspan x="0" y="72" font-size="25">{{ page.title }} </tspan><tspan x="165.295" y="72" font-size="25" letter-spacing="8">	</tspan><tspan x="180" y="72" font-size="25">-</tspan><tspan x="188.044" y="72" font-size="25" letter-spacing="21">	</tspan><tspan x="216" y="72" font-size="25">How to create a Jekyll blog</tspan><tspan x="0" y="108" font-size="25">{{ site.desc }} </tspan><tspan x="158.301" y="108" font-size="25" letter-spacing="15">	</tspan><tspan x="180" y="108" font-size="25">-</tspan><tspan x="188.044" y="108" font-size="25" letter-spacing="21">	</tspan><tspan x="216" y="108" font-size="25">I created this beautiful </tspan><tspan x="0" y="144" font-size="25">looking Jekyll blog using default Jekyll template. </tspan><tspan x="0" y="180" font-size="25">You can also host your blog on github using Jekyll. </tspan><tspan x="0" y="216" font-size="25">Jekyll is a simple blog generator. Jekyll blogs </tspan><tspan x="0" y="252" font-size="25">creation is easy, simple and efficient. </tspan></text>
</svg>
