<?xml version="1.0" encoding="utf-8"?>
<svg version="1.1" xmlns="http://www.w3.org/2000/svg" xmlns:xlink="http://www.w3.org/1999/xlink" x="0px" y="0px" viewBox="0 0 1066.547 665.467" enable-background="new 0 0 1066.547 665.467" xml:space="preserve">
<g id="Objects">
	<g>
		<g>
			
				<path fill-rule="evenodd" clip-rule="evenodd" fill="none" stroke="#E0F4FF" stroke-width="19.1999" stroke-miterlimit="22.9256" d="
				M709.958,366.414c-104.3,159.037-188.318-61.444-285.731,34.667"/>
			<g>
				<path fill-rule="evenodd" clip-rule="evenodd" fill="#E0F4FF" d="M430.388,385.527l9.795,13.357
					c2.888,3.936,2.029,9.517-1.906,12.405l-15.492,11.361l-20.292-27.669l15.49-11.362
					C421.919,380.734,427.5,381.591,430.388,385.527z"/>
				<path fill-rule="evenodd" clip-rule="evenodd" fill="#E0F4FF" d="M415.61,393.045L415.61,393.045
					c2.017,2.751,1.417,6.651-1.333,8.668l-21.483,15.755c-2.75,2.017-6.647,1.417-8.664-1.331l0,0
					c-2.018-2.748-1.417-6.647,1.331-8.665l21.485-15.759C409.694,389.7,413.593,390.3,415.61,393.045z"/>
				<path fill-rule="evenodd" clip-rule="evenodd" fill="#E0F4FF" d="M428.571,410.719L428.571,410.719
					c2.017,2.75,1.417,6.649-1.333,8.663l-21.484,15.758c-2.748,2.017-6.648,1.417-8.664-1.332l0,0
					c-2.018-2.75-1.417-6.647,1.332-8.663l21.484-15.759C422.656,407.37,426.555,407.97,428.571,410.719z"/>
			</g>
		</g>
		<path fill-rule="evenodd" clip-rule="evenodd" fill="#F9A818" d="M835.339,422.962c14.997,1.49,25.531,8.276,28.75,26.69
			c3.911,22.381,1.395,73.415-21.497,80.88c-14.354,4.676-27.163-9.901-32.071-33.819
			C807.157,480.305,798.216,419.276,835.339,422.962z"/>
		<path fill-rule="evenodd" clip-rule="evenodd" fill="#E0F4FF" d="M690.331,387.3c8.929,29.32,30.853,91.811,83.405,92.976
			c15.2,0.336,30.335,0.373,34.824,8.283c12.013,21.158,38.837-15.689,38.781-37.771c-0.087-36.382-25.965-34.966-57.437-29.388
			c-2.634,0.466-4.396-33.446-16.964-53.846C760.798,347.844,674.712,336.018,690.331,387.3z"/>
		<path fill-rule="evenodd" clip-rule="evenodd" fill="#F9A818" d="M947.134,376.26c15.019-1.265,26.611,3.487,33.13,21.006
			c7.927,21.294,14.745,71.936-6.4,83.44c-13.262,7.215-28.515-4.781-37.697-27.409C929.868,437.777,909.961,379.396,947.134,376.26
			z"/>
		<path fill="#FCDA9F" d="M966.166,379.324c1.668,2.711,3.259,5.634,4.739,8.717c6.107,12.712,10.513,28.355,10.565,43.595
			c0.057,16.221-1.06,29.456-6.659,38.771c-3.189,5.309-7.672,9.251-13.966,11.621c-3.306-1.001-6.579-2.96-9.705-5.757
			c8.415-1.172,13.675-4.62,16.88-9.951c4.661-7.754,5.585-19.751,5.535-34.656c-0.049-13.982-4.126-28.406-9.775-40.167
			c-2.88-5.996-6.107-11.252-9.349-15.329C958.713,376.463,962.643,377.448,966.166,379.324z"/>
		<path fill-rule="evenodd" clip-rule="evenodd" fill="#E0F4FF" d="M804.784,378.43c17.375,25.249,46.363,55.638,98.794,59.393
			c11.483,0.825,25.19-2.659,29.926,0.806c11.194,8.19,33.838-23.185,29.201-38.991c-9.966-33.967-22.711-30.009-61.862-24.012
			c-2.646,0.405-18.735-41.531-36.881-57.178C846.426,303.333,774.39,334.27,804.784,378.43z"/>
		<path fill-rule="evenodd" clip-rule="evenodd" fill="#F4F9FC" d="M710.431,390.309c1.603,21.907,14.028,50.121,23.017,60.407
			c8.989,10.286,37.056,14.141,17.438-48.978C731.269,338.617,709.199,345.059,710.431,390.309z"/>
		<path fill-rule="evenodd" clip-rule="evenodd" fill="#F4F9FC" d="M809.802,365.934c9.911,20.097,30.53,39.631,41.43,44.017
			c10.897,4.386,33.704-9.108-6.229-57.823C805.071,303.417,790.901,323.143,809.802,365.934z"/>
		<path fill-rule="evenodd" clip-rule="evenodd" fill="#BEDCED" d="M728.128,170.618c96.439-28.143,237.414,179.238,66.837,229.021
			C624.386,449.418,631.69,198.763,728.128,170.618z"/>
		<path fill-rule="evenodd" clip-rule="evenodd" fill="#E0F4FF" d="M728.128,170.618c96.439-28.143,235.081,171.245,64.502,221.023
			C622.052,441.423,631.69,198.763,728.128,170.618z"/>
		<path fill-rule="evenodd" clip-rule="evenodd" fill="#F4F9FC" d="M728.976,173.52c83.077-24.245,205.628,158.196,58.681,201.079
			C640.708,417.484,645.897,197.763,728.976,173.52z"/>
		<path fill-rule="evenodd" clip-rule="evenodd" fill="#BEDCED" d="M725.772,162.531c32.372-9.447,72.143,11.338,100.322,41.961
			c-37.723,54.957-100.7,69.661-161.615,44.555C671.822,208.206,693.403,171.978,725.772,162.531z"/>
		<path fill-rule="evenodd" clip-rule="evenodd" fill="#E0F4FF" d="M599.292,151.223l9.852-2.875l21.395,73.318l-9.85,2.873
			c-3.354,0.98-10.862-14.64-16.77-34.884C598.01,169.407,595.938,152.201,599.292,151.223z"/>
		<path fill-rule="evenodd" clip-rule="evenodd" fill="#E0F4FF" d="M847.707,158.288c3.353-0.978,1.281-18.184-4.628-38.429
			c-5.906-20.248-13.418-35.866-16.769-34.888l-9.85,2.874l21.393,73.318L847.707,158.288z"/>
		<path fill-rule="evenodd" clip-rule="evenodd" fill="#BEDCED" d="M609.095,148.362l3.865-1.127l21.396,73.317l-3.863,1.129
			C603,204.756,595.088,177.387,609.095,148.362z"/>
		<path fill-rule="evenodd" clip-rule="evenodd" fill="#BEDCED" d="M817.373,87.58l-4.144,1.209l21.395,73.316l4.145-1.209
			C852.377,131.98,844.605,104.57,817.373,87.58z"/>
		
			<ellipse transform="matrix(-0.2801 -0.96 0.96 -0.2801 777.616 892.6387)" fill-rule="evenodd" clip-rule="evenodd" fill="#E0F4FF" cx="723.5" cy="154.755" rx="88.935" ry="119.528"/>
		<path fill-rule="evenodd" clip-rule="evenodd" fill="#F4F9FC" d="M703.528,86.318c53.77-15.692,107.073,4.877,119.056,45.942
			c11.985,41.065-21.888,87.076-75.661,102.769c-53.767,15.688-107.071-4.879-119.057-45.944
			C615.882,148.022,649.756,102.01,703.528,86.318z"/>
		<path fill-rule="evenodd" clip-rule="evenodd" fill="#FCD592" d="M815.708,125.401c0.136,0.426,0.272,0.85,0.397,1.279
			c12.109,41.493-19.661,87.266-70.963,102.238c-51.301,14.971-102.704-6.531-114.813-48.022c-0.124-0.43-0.239-0.86-0.354-1.292
			C662.23,130.61,759.57,102.064,815.708,125.401z"/>
		<g>
			<g>
				<g>
					
						<circle fill-rule="evenodd" clip-rule="evenodd" fill="none" stroke="#FFFFFF" stroke-width="11.9999" stroke-linecap="round" stroke-linejoin="round" stroke-miterlimit="22.9256" cx="694.07" cy="171.213" r="10.075"/>
					<path fill-rule="evenodd" clip-rule="evenodd" d="M691.249,161.541c5.341-1.559,10.935,1.508,12.492,6.85
						c1.559,5.342-1.507,10.935-6.85,12.495c-5.34,1.558-10.934-1.508-12.491-6.85C682.841,168.694,685.908,163.1,691.249,161.541z"
						/>
				</g>
				<circle fill-rule="evenodd" clip-rule="evenodd" fill="#FFFFFF" cx="696.906" cy="165.668" r="3.264"/>
			</g>
			<g>
				<g>
					
						<circle fill-rule="evenodd" clip-rule="evenodd" fill="none" stroke="#FFFFFF" stroke-width="11.9999" stroke-linecap="round" stroke-linejoin="round" stroke-miterlimit="22.9256" cx="757.16" cy="152.802" r="10.073"/>
					<path fill-rule="evenodd" clip-rule="evenodd" d="M754.339,143.131c5.342-1.561,10.933,1.505,12.491,6.847
						c1.56,5.342-1.507,10.936-6.849,12.493c-5.34,1.561-10.936-1.506-12.492-6.847
						C745.931,150.282,748.996,144.688,754.339,143.131z"/>
				</g>
				<path fill-rule="evenodd" clip-rule="evenodd" fill="#FFFFFF" d="M759.081,144.122c1.729-0.503,3.543,0.49,4.048,2.219
					c0.504,1.73-0.488,3.544-2.219,4.048c-1.73,0.505-3.543-0.489-4.048-2.219C756.36,146.44,757.35,144.628,759.081,144.122z"/>
			</g>
			<path fill-rule="evenodd" clip-rule="evenodd" fill="#381E1E" d="M668.211,170.657c-5.145-9.842,15.807-31.72,25.736-29.897
				c8.564,1.571-6.489,3.013-14.603,13.723C669.295,167.743,672.414,178.703,668.211,170.657z"/>
			<path fill-rule="evenodd" clip-rule="evenodd" fill="#381E1E" d="M779.853,138.933c0.161-11.104-28.401-21.203-36.446-15.104
				c-6.936,5.257,7.155-0.233,19.221,5.675C777.572,136.82,779.722,148.01,779.853,138.933z"/>
			<g>
				<path fill-rule="evenodd" clip-rule="evenodd" fill="#381E1E" d="M733.353,185.25c25.861-7.558,60.924-4.114,53.798,8.118
					c-3.98,6.837-15.835,6.037-47.424,14.076c-26.306,6.694-40.403,12.565-46.81,9.899
					C683.205,213.299,694.231,196.687,733.353,185.25z"/>
				<g>
					<path fill-rule="evenodd" clip-rule="evenodd" fill="#FFFFFF" d="M712.686,192.825c0.07,0.183,0.135,0.369,0.189,0.562
						c1.014,3.476-0.98,7.119-4.458,8.132c-2.737,0.801-5.575-0.268-7.154-2.455C704.4,196.995,708.197,194.893,712.686,192.825z"/>
					<path fill-rule="evenodd" clip-rule="evenodd" fill="#FFFFFF" d="M729.327,186.478c0.247,3.039-1.66,5.935-4.698,6.821
						c-2.769,0.809-5.645-0.292-7.212-2.528C721.017,189.297,724.98,187.856,729.327,186.478z"/>
					<path fill-rule="evenodd" clip-rule="evenodd" fill="#FFFFFF" d="M748.595,182.137c-0.295,2.537-2.071,4.773-4.678,5.533
						c-3.039,0.887-6.202-0.526-7.632-3.218C740.283,183.435,744.444,182.663,748.595,182.137z"/>
					<path fill-rule="evenodd" clip-rule="evenodd" fill="#FFFFFF" d="M768.766,181.5c-0.496,2.271-2.185,4.208-4.574,4.906
						c-3.477,1.014-7.118-0.982-8.133-4.459c-0.049-0.165-0.091-0.329-0.126-0.495C760.433,181.183,764.786,181.202,768.766,181.5z"
						/>
				</g>
				<path fill-rule="evenodd" clip-rule="evenodd" fill="#8F410E" d="M716.949,213.685c1.415-8.402,6.181-15.076,11.267-19.232
					c2.688-2.197,7.703,9.891,10.116,9.215c2.155-0.602,2.592-14.183,5.531-13.467c5.518,1.342,11.973,5.196,17.708,12.271
					c-5.952,1.216-13.149,2.76-21.845,4.972C730.781,209.72,723.246,211.901,716.949,213.685z"/>
			</g>
		</g>
		<g>
			<path fill-rule="evenodd" clip-rule="evenodd" fill="#E0F4FF" d="M667.062,287.578c-12.422,8.595-48.237,3.406-69.916-2.289
				c-21.68-5.695-49.03-17.913-59.33-28.526c-8.798-9.064,16.938-45.329,34.604-32.393c17.125,12.539,30.807,28.162,53.438,21.984
				c12.218-3.331,28.827-4.066,37.417-0.146C677.025,252.49,679.516,278.96,667.062,287.578z"/>
			<path fill-rule="evenodd" clip-rule="evenodd" fill="#BEDCED" d="M550.618,266.258c-5.341-3.169-9.799-6.4-12.802-9.496
				c-8.798-9.064,16.938-45.329,34.604-32.393c3.008,2.201,5.906,4.498,8.768,6.754c-3.056,10.649-11.421,19.857-20.166,28.424
				C557.718,262.788,554.23,264.939,550.618,266.258z"/>
			<path fill-rule="evenodd" clip-rule="evenodd" fill="#BEDCED" d="M667.062,287.578c-3.686,2.552-9.435,3.89-16.26,4.359
				c16.075-5.25,25.077-27.898,4.897-47.528c3.698,0.393,4.99,0.621,7.575,1.8C677.025,252.49,679.516,278.96,667.062,287.578z"/>
			<path fill-rule="evenodd" clip-rule="evenodd" fill="#F9A818" d="M553.98,250.376c10.409-10.2,16.48-20.82,15.141-36.407
				c-2.171-25.231-10.213-28.483-14.879-10.434c-4.483,17.34-16.516,2.458-21.362-9.551c-5.277-13.083-21.626-12.819-14.166,1.495
				c9.288,17.82,5.655,21.794-8.035,11.033c-7.872-6.187-22.219,1.904-9.896,10.742c15.85,11.365,19.507,18.903,3.328,15.087
				c-9.982-2.353-18.248,8.159-2.297,12.902C517.936,250.039,538.532,265.519,553.98,250.376z"/>
			<path fill="#FCDA9F" d="M569.108,213.924c-0.577,0.411-1.188,0.791-1.82,1.131c-1.499,0.807-3.139,1.424-4.793,1.734
				c-1.748,0.332-3.529,0.334-5.22-0.113c-2.717-0.715-5.091-2.486-6.571-5.73c1.469-1.11,2.763-3.3,3.752-6.889l0.002-0.006
				c0.125,0.56,0.238,1.136,0.338,1.732c0.59,3.529,2.087,5.18,3.849,5.645c0.872,0.23,1.85,0.218,2.854,0.027
				c1.094-0.209,2.196-0.623,3.217-1.172c1.567-0.843,2.919-1.913,3.681-2.92C568.685,209.347,568.925,211.535,569.108,213.924
				L569.108,213.924z M538.289,203.894c-1.472,1.613-3.43,2.935-5.595,3.747c-2.274,0.855-4.812,1.171-7.3,0.718
				c-0.521-0.095-1.039-0.222-1.55-0.387c-0.375-2.342-1.507-5.596-3.436-9.747c0.443,0.526,0.898,1.109,1.365,1.752
				c1.301,1.792,2.927,2.729,4.594,3.033c1.474,0.269,3.014,0.067,4.42-0.462c1.436-0.537,2.702-1.393,3.599-2.419
				c0.38-0.432,0.691-0.893,0.915-1.361C536.198,200.542,537.21,202.287,538.289,203.894L538.289,203.894z M517.719,211.124
				c-0.057,1.263-0.218,2.537-0.489,3.769c-0.515,2.337-1.435,4.582-2.807,6.364c-1.173,1.521-2.654,2.693-4.472,3.314
				c-1.982-1.957-4.591-4.176-7.76-6.59c0.243,0.131,0.492,0.268,0.753,0.41c1.876,1.035,3.375,1.377,4.549,1.217
				c1.065-0.144,1.941-0.764,2.633-1.662c0.844-1.097,1.436-2.596,1.795-4.225c0.486-2.207,0.535-4.523,0.202-6.367
				C514.266,209.023,516.135,210.278,517.719,211.124L517.719,211.124z M513.475,232.688c1.416,1.991,2.671,4.35,3.464,6.831
				c0.708,2.22,1.063,4.555,0.863,6.841c-0.143,1.646-0.564,3.258-1.333,4.78c-1.68-0.732-3.344-1.48-4.986-2.206
				c0.528-0.957,0.813-1.988,0.905-3.046c0.134-1.545-0.118-3.163-0.619-4.729c-1.144-3.583-3.492-6.803-5.539-8.389l-0.284-0.223
				C509.8,233.362,512.26,233.359,513.475,232.688z"/>
		</g>
		<g>
			<path fill-rule="evenodd" clip-rule="evenodd" fill="#E0F4FF" d="M849.365,246.9c14.95-2.157,37.66-30.335,49.668-49.26
				c12.012-18.928,23.734-46.495,24.057-61.28c0.278-12.627-43.258-21.685-47.399-0.184c-4.012,20.841-3.405,41.601-24.191,52.479
				c-11.221,5.871-23.892,16.638-27.512,25.354C818.184,227.969,834.376,249.062,849.365,246.9z"/>
			<path fill-rule="evenodd" clip-rule="evenodd" fill="#BEDCED" d="M920.172,152.032c1.76-5.957,2.825-11.358,2.918-15.671
				c0.278-12.627-43.258-21.685-47.399-0.184c-0.704,3.66-1.266,7.317-1.827,10.917c9.488,5.723,21.884,6.773,34.119,7.102
				C912.609,154.319,916.627,153.524,920.172,152.032z"/>
			<path fill-rule="evenodd" clip-rule="evenodd" fill="#BEDCED" d="M849.365,246.9c4.438-0.642,9.557-3.573,14.881-7.877
				c-14.687,7.759-37.598-2.678-34.814-33.25c-2.445,2.805-4.355,5.613-5.444,8.236C818.184,227.969,834.376,249.062,849.365,246.9z
				"/>
			<path fill-rule="evenodd" clip-rule="evenodd" fill="#F9A818" d="M906.903,142.684c-14.572-0.39-26.246-4.038-35.873-16.372
				c-15.581-19.965-11.902-27.819,3.801-17.77c15.085,9.655,13.774-9.439,9.153-21.537c-5.037-13.176,7.119-24.111,11.394-8.545
				c5.324,19.378,10.689,19.817,13.399,2.616c1.556-9.89,17.572-13.725,14.56,1.135c-3.879,19.114-1.429,27.125,7.831,13.32
				c5.712-8.517,18.921-6.441,10.462,7.89C933.079,117.903,928.522,143.263,906.903,142.684z"/>
			<path fill="#FCDA9F" d="M871.008,126.271c0.704-0.093,1.409-0.229,2.103-0.411c1.649-0.429,3.27-1.093,4.696-1.989
				c1.506-0.948,2.811-2.16,3.746-3.636c1.501-2.375,2.036-5.286,0.913-8.671c-1.831,0.186-4.271-0.537-7.438-2.495l-0.005-0.003
				c0.288,0.494,0.597,0.994,0.929,1.498c1.97,2.986,1.997,5.218,1.022,6.756c-0.48,0.762-1.207,1.42-2.071,1.963
				c-0.94,0.594-2.032,1.038-3.153,1.331c-1.725,0.448-3.441,0.584-4.684,0.365C868.205,122.63,869.515,124.395,871.008,126.271
				L871.008,126.271z M886.763,97.946c2.178,0.182,4.512-0.184,6.649-1.062c2.249-0.922,4.326-2.417,5.839-4.442
				c0.318-0.425,0.608-0.871,0.871-1.339c-1.315-1.97-2.702-5.125-4.113-9.48c0.031,0.687,0.095,1.423,0.19,2.212
				c0.268,2.2-0.288,3.992-1.3,5.349c-0.897,1.201-2.164,2.101-3.555,2.671c-1.418,0.582-2.928,0.816-4.282,0.677
				c-0.574-0.06-1.114-0.184-1.598-0.376C886.014,94.067,886.46,96.033,886.763,97.946L886.763,97.946z M906.76,89.244
				c0.898,0.887,1.883,1.712,2.917,2.429c1.971,1.362,4.173,2.381,6.392,2.753c1.893,0.316,3.775,0.167,5.531-0.615
				c0.12-2.782,0.521-6.185,1.201-10.109c-0.09,0.26-0.182,0.53-0.274,0.812c-0.67,2.036-1.537,3.305-2.505,3.989
				c-0.879,0.619-1.943,0.759-3.063,0.572c-1.36-0.228-2.815-0.924-4.187-1.873c-1.857-1.285-3.471-2.951-4.48-4.527
				C907.856,85.355,907.34,87.546,906.76,89.244L906.76,89.244z M924.541,102.157c0.317,2.421,1.003,5.006,2.111,7.362
				c0.991,2.107,2.321,4.06,4.022,5.599c1.225,1.108,2.63,2.004,4.23,2.597c0.731-1.681,1.442-3.361,2.15-5.011
				c-1.036-0.341-1.948-0.904-2.736-1.616c-1.149-1.04-2.064-2.398-2.766-3.887c-1.598-3.404-2.066-7.358-1.65-9.915l0.057-0.356
				C927.693,100.147,925.888,101.821,924.541,102.157z"/>
		</g>
		<path fill="#FCDA9F" d="M853.495,429.439c1.144,2.973,2.178,6.136,3.072,9.437c3.687,13.612,5.172,29.797,2.446,44.791
			c-2.898,15.958-6.409,28.77-13.61,36.909c-4.104,4.639-9.23,7.698-15.85,8.884c-3.069-1.587-5.931-4.108-8.495-7.431
			c8.488,0.382,14.29-2.05,18.409-6.708c5.997-6.775,9.094-18.405,11.758-33.069c2.498-13.758,1.118-28.681-2.294-41.276
			c-1.739-6.42-3.958-12.174-6.4-16.774C846.687,425.273,850.372,426.956,853.495,429.439z"/>
		<path fill-rule="evenodd" clip-rule="evenodd" fill="#F4F9FC" d="M884.464,418.427c4.25-3.737,17.184-10.844,33.001-10.109
			c15.813,0.731,26.26,10.478,18.4,17.264c-7.86,6.784-22.617,5.767-33.504,3.641C891.477,427.091,879.909,422.62,884.464,418.427z"
			/>
		<path fill-rule="evenodd" clip-rule="evenodd" fill="#F4F9FC" d="M776.242,464.074c4.021-3.673,16.32-10.592,31.476-9.666
			c15.156,0.925,25.28,10.766,17.838,17.428c-7.444,6.665-21.589,5.469-32.042,3.213
			C783.063,472.792,771.933,468.193,776.242,464.074z"/>
		<path fill-rule="evenodd" clip-rule="evenodd" fill="#BEDCED" d="M808.59,488.608c12.027,21.048,38.808-15.755,38.752-37.819
			c-0.047-19.448-7.463-28.091-19.162-31.078c0.257,0.491,0.531,1.018,0.833,1.58c5.396,10.085,12.594,51.561-9.441,62.286
			C815.863,485.383,812.169,487.062,808.59,488.608z"/>
		<path fill-rule="evenodd" clip-rule="evenodd" fill="#BEDCED" d="M932.688,438.141c0.295,0.144,0.569,0.307,0.816,0.487
			c11.194,8.19,33.838-23.185,29.201-38.991c-4.713-16.053-10.044-23.632-18.487-26.531c7.074,11.733,11.886,22.832,10.695,31.996
			C953.357,417.088,946.953,429.387,932.688,438.141z"/>
		<g>
			
				<path fill-rule="evenodd" clip-rule="evenodd" fill="none" stroke="#C4820F" stroke-width="9.6001" stroke-linecap="round" stroke-linejoin="round" stroke-miterlimit="22.9256" d="
				M702.85,280.735l105.819-30.879c7.991-2.331,16.438,2.299,18.767,10.289l17.387,59.574c2.334,7.994-2.298,16.438-10.29,18.771
				l-105.815,30.881c-7.992,2.331-16.438-2.299-18.771-10.29l-17.386-59.574C690.228,291.516,694.858,283.071,702.85,280.735z"/>
			<path fill-rule="evenodd" clip-rule="evenodd" fill="#F9A818" d="M702.85,280.735l105.819-30.879
				c7.991-2.331,16.438,2.299,18.767,10.289l17.387,59.574c2.334,7.994-2.298,16.438-10.29,18.771l-105.815,30.881
				c-7.992,2.331-16.438-2.299-18.771-10.29l-17.386-59.574C690.228,291.516,694.858,283.071,702.85,280.735z"/>
		</g>
		<text transform="matrix(0.8855 -0.2584 0.2801 0.96 707.3975 336.7339)" fill="#eee" font-size="19" font-family="'Segoe UI'"><tspan x="0" y="0">RETURN TO THE  </tspan><tspan x="20.075" y="26.984" >HOME PAGE</tspan></text>
		<path fill="#FFFFFF" d="M761.661,269.361c1.523,0.173,2.991,0.646,4.315,1.37c2.631,1.442,4.713,3.888,5.617,6.994
			c0.907,3.106,0.47,6.286-0.97,8.918c-1.443,2.631-3.889,4.711-6.997,5.618c-1.539,0.448-3.097,0.567-4.598,0.398l0.446-3.952
			c0.989,0.113,2.02,0.032,3.038-0.263c2.054-0.601,3.669-1.974,4.623-3.713c0.951-1.737,1.241-3.837,0.642-5.893
			c-0.599-2.054-1.972-3.669-3.71-4.623c-0.877-0.48-1.846-0.79-2.854-0.906L761.661,269.361z M757.061,269.758
			c1.541-0.45,3.098-0.567,4.601-0.397l-0.446,3.949c-0.994-0.111-2.024-0.034-3.042,0.264c-2.053,0.599-3.668,1.974-4.622,3.713
			c-0.954,1.736-1.242,3.84-0.642,5.894c0.598,2.054,1.975,3.672,3.713,4.62c0.873,0.481,1.845,0.793,2.854,0.907l-0.446,3.952
			c-1.525-0.175-2.994-0.645-4.318-1.373c-2.631-1.441-4.711-3.888-5.618-6.993c-0.908-3.107-0.47-6.288,0.975-8.919
			C751.51,272.745,753.954,270.666,757.061,269.758z"/>
		<circle fill-rule="evenodd" clip-rule="evenodd" fill="#FF582E" cx="760.343" cy="281.009" r="9.734"/>
		<path opacity="0.5" fill-rule="evenodd" clip-rule="evenodd" fill="#FFFFFF" d="M782.652,198.233
			c16.136-12.525,45.1-56.769,14.395-68.695c-33.863-13.154-85.877,4.107-113.303,16.391c25.285-8.754,69.739-18.162,103.603-5.008
			C818.051,152.846,794.325,186.656,782.652,198.233z"/>
	</g>
</g>
</svg>
