<svg xmlns="http://www.w3.org/2000/svg" width="439" height="355" viewBox="0 0 438.8 354.8"><style>.a{fill:#fff; opacity: 0.45}</style><g opacity="0.7"><path d="M429.8 2.7L429.2 0h-1.2l0.4 1.9 -65.7 23.1 0 0.4c-0.1 1.3-10.5 126.3 5.3 169 -3.6 4.3-48.5 58.2-65.6 92.2 -4.6 2.6-101.3 57.1-120.8 76.3 -6.4-0.6-120-10.4-154.6-3.6C25.6 359 15.2 356.3 0 353.2v1.2c15.8 3.2 26.5 6.1 26.8 6.2l0.1 0 0.1 0c35.1-7 153.5 3.5 154.7 3.6l0.3 0 0.2-0.2c19.3-19.3 119.9-75.8 120.9-76.4l0.2-0.1 0.1-0.2c17.6-35.1 65.3-91.9 65.8-92.4l0.2-0.3 -0.1-0.3c-15.3-40.9-6-160.7-5.3-168.4L429.8 2.7z" class="a"/><path d="M277.5 0h-7c15 2.5 26.9 5 33.8 7.4 38.8 13.7 90.5 36.4 91 36.6l0.5-1.1c-0.5-0.2-52.3-22.9-91.1-36.6C298.9 4.3 289.4 2.1 277.5 0z" class="a"/><path d="M139.3 55.2C113.5 43.8 73.2 18.8 44 0h-2.2c29.2 19 70.7 44.7 97 56.3 41.3 18.2 75.6 35.5 119.1 65.8 40.5 28.2 109.1 72.2 109.9 72.8l0.6-1c-0.9-0.6-69.4-44.6-109.9-72.8C215 90.7 180.6 73.4 139.3 55.2z" class="a"/><path d="M179.5 172.8c-17-13.5-34.5-27.4-43.6-35.7C121.1 123.7 52.1 39.6 19.8 0H18.3c32 39.3 101.9 124.5 116.8 138 9.1 8.3 26.7 22.3 43.7 35.8 19.4 15.4 39.5 31.4 47.1 39 14.1 14.1 75.8 74.1 76.5 74.8l0.9-0.8c-0.8-0.8-62.5-60.8-76.6-74.8C219.1 204.3 198.9 188.3 179.5 172.8z" class="a"/><path d="M86.2 212.1C75.1 185.6 23.9 54.2 2.8 0H1.5c21 53.9 72.4 185.9 83.6 212.5 15.2 36.1 46.1 81.4 55.2 94.4 12.3 17.5 40.3 56.2 40.5 56.7l1.1-0.4c-0.2-0.6-28.3-39.4-40.7-57C132.2 293.3 101.4 248.1 86.2 212.1z" class="a"/><path d="M3.2 271.1c0.9 6.9 11.1 47.6 21.5 88.2 0.4 0 0.8 0 1.2 0 -10.5-40.7-20.8-81.6-21.6-88.3 -0.6-4.5-0.8-12.5-1-21.7C3 233.9 2.5 214.1 0 197.4v9.6c1.5 14.3 1.9 29.7 2.2 42.2C2.4 258.6 2.7 266.5 3.2 271.1z" class="a"/><path d="M353.7 0c-2.4 11.5-3.9 21.2-4 22.3 -1.3 2.4-26.1 47.1-26.1 71.4 0 24-3.3 67.2-3.5 69.8 -1.2 2.4-21.6 42-28.4 56.9 -7 15.3-17.7 41.3-17.8 41.5 -0.2 0.4-21.7 40.3-59 53.1 -37.3 12.8-64.7 7.2-65 7.1 -0.3 0-30.1-2.4-68.9 0 -37.1 2.3-61.7 5.6-63.9 5.9 -1.1-0.5-7.9-3.4-16.9-6.4v1.3c9.6 3.2 16.5 6.3 16.6 6.3l0.2 0.1 0.2 0c0.2 0 25.4-3.6 64-5.9 38.7-2.4 68.4 0 68.6 0 0.3 0.1 27.9 5.8 65.6-7.1 37.8-13 59.4-53.3 59.7-53.7 0.1-0.3 10.8-26.3 17.8-41.5 7-15.2 28.3-56.5 28.5-56.9l0.1-0.2c0-0.5 3.6-45.4 3.6-70 0-24.5 25.8-70.4 26-70.9l0.1-0.2c0-0.2 1.5-10.4 4.1-22.6H353.7z" class="a"/><path d="M68.5 0c-2 3.6-3.8 7.2-4.7 10.2L35.7 21.9 15.6 24.3 0 26.6v1.2l15.8-2.3 20.2-2.4 28.6-11.9 0.3-0.1 0.1-0.3C65.8 7.7 67.7 3.9 69.9 0H68.5z" class="a"/><path d="M333.3 0h-1.2c0.1 8.4 0.3 14.1 0.3 15.5 -1.1 1.9-12.1 21.1-22.2 48.9 -10.9 30.1-16 53-14.3 64.4 1.7 10.8 1 21.7 0.9 22.9 -0.7 1.5-8.4 18.3-16.9 46.2 -5.8 19-6.3 27.2-6.7 33.1 -0.2 3.1-0.4 5.6-1.3 8.7 -2.6 8.6-7.8 13.9-7.8 13.9 -0.4 0.3-40.3 25-65.8 36.4 -16.9 7.6-33.7 9.8-43.8 11.2 -5.6 0.7-9.3 1.2-10.6 2.2l-3.3 2.5c-3.6-1.2-38.5-12.2-58.7-8.8 -12.2 2-18.6 0.5-24.7-0.9 -4.5-1.1-9.2-2.2-16.1-1.8 -14.3 0.8-30.3 4.5-32.3 7.6 0 0-0.1 0.1-0.1 0.1 -1.2-0.6-3.8-1.8-8.7-3.1v1.3c6.4 1.8 8.8 3.2 8.8 3.3l1.4 0.9 -0.5-1.6c0-0.1 0.1-0.2 0.1-0.2 1.6-2.4 16.8-6.2 31.4-7 6.7-0.4 11.1 0.7 15.8 1.7 6.3 1.5 12.8 3 25.2 0.9 21-3.5 58.1 8.7 58.4 8.9l0.3 0.1 3.8-2.9c1.1-0.8 5-1.3 10-2 10.1-1.4 27.1-3.6 44.1-11.3 25.5-11.4 65.5-36.3 66-36.6 0.2-0.2 5.5-5.5 8.2-14.5 1-3.2 1.1-5.7 1.3-8.9 0.4-5.9 0.9-14 6.7-32.9 8.8-29 16.8-46 16.9-46.2l0.1-0.2c0-0.1 0.9-11.8-0.9-23.3 -1.7-11.2 3.3-33.8 14.2-63.8 10.5-29 22.1-48.6 22.2-48.8l0.1-0.1 0-0.2C333.6 15.4 333.4 9.4 333.3 0z" class="a"/><path d="M360.5 0c-0.7 13-3.1 25.2-3.2 25.3l1.2 0.2c0-0.2 2.5-12.4 3.2-25.6H360.5z" class="a"/><path d="M57.3 0c-1.2 2.6-2 4.7-2.3 5.4C47.4 8.3 42.4 24.2 41.6 26.8c-9.1 2.7-19.3 16.8-21.1 19.3 -1.3-0.5-5.4-1.8-11.3-2.5 -1-0.1-2.2-0.2-3.5-0.2 -1.8 0-3.8 0.1-5.7 0.3v1.2c2-0.2 3.9-0.3 5.7-0.3 1.3 0 2.4 0.1 3.4 0.2 6.9 0.9 11.4 2.6 11.4 2.6l0.4 0.2 0.3-0.4c0.1-0.2 11.6-16.8 21-19.3l0.3-0.1 0.1-0.3c0.1-0.2 5.3-18.4 13-20.9l0.3-0.1 0.1-0.3C56 6 57 3.5 58.6 0H57.3z" class="a"/><path d="M80 0c-3.9 9.5-6.7 19.1-7.3 21.3 -11.6 0.5-17 18.2-17.8 21.4 -8 0.6-27 15.4-29.8 17.7 -3.5-2.1-8.2-3.2-14-3.2 -3.8 0-7.6 0.5-11.1 1.1v1.2c3.4-0.6 7.3-1.1 11.1-1.1 5.8 0 10.4 1.1 13.8 3.3l0.4 0.2 0.3-0.3c0.2-0.2 22.2-17.7 29.9-17.7h0.5l0.1-0.5c0.1-0.2 5.4-20.9 17.2-20.9h0.5l0.1-0.4C73.8 21.8 76.9 10.7 81.3 0H80z" class="a"/><path d="M98.2 0c-6.4 12.2-11.3 24.1-12.1 25.9C73.5 31.1 65 49.2 63.9 51.7 49.8 55.9 29.5 71.6 26.9 73.7 19.7 70.5 8.7 69.2 0 68.7v1.2c8.8 0.5 19.7 1.8 26.7 5l0.3 0.2 0.3-0.2c0.2-0.2 22.3-17.8 37.2-22.1l0.3-0.1 0.1-0.3c0.1-0.2 9-20.3 21.9-25.5l0.2-0.1 0.1-0.2C87.2 26.4 92.5 13.3 99.5 0H98.2z" class="a"/><path d="M319.7 0c0.2 9 0.2 15.4 0.2 16.4 -1.3 2.7-22.9 47.2-33.2 73.5 -10 25.6-13.8 42-14.2 43.8 -2 2-26.3 27.3-30.9 51.2 -4.1 21.8-8.4 30-9.2 31.5 -4.4-0.2-47.8-1.5-75.9 11.9 -27.8 13.4-49.6 23.7-52 24.8 -3.4-1-43.5-13.1-62.8-15.4 -2.5-0.3-5-0.4-7.4-0.4 -15.6 0-28.6 5.4-30.6 6.3 -0.5-0.3-1.8-0.9-3.8-1.8v1.3c2.3 1 3.5 1.6 3.5 1.7l0.3 0.1 0.3-0.1c0.2-0.1 17.9-8.2 37.6-5.9 19.9 2.3 62.3 15.3 62.8 15.4l0.2 0.1 0.2-0.1c0.2-0.1 22.9-10.8 52.2-24.9 29.2-14 75.2-11.8 75.6-11.8l0.3 0 0.2-0.3c0.2-0.3 4.9-7.5 9.6-32.2 4.7-24.4 30.4-50.4 30.7-50.7l0.1-0.1 0-0.2c0-0.2 3.7-16.9 14.2-43.8 10.5-27 33-73.1 33.2-73.5l0.1-0.3c0-0.1 0-6.8-0.2-16.6H319.7z" class="a"/><path d="M113.7 0c-5.8 9.4-12.9 21.6-18.4 33.4 -1.7 1.6-21.2 19.6-24.3 27.8C68.6 62.7 43 78.1 33.7 84.3c-1.1 0.7-14.2 2.8-29.7 2.8 -1.4 0-2.7 0-4-0.1v1.2c1.3 0 2.7 0.1 4 0.1 14.9 0 28.8-2 30.4-3 9.6-6.4 37.1-23 37.3-23.1l0.2-0.1L72 61.8c2.9-8.1 24-27.4 24.2-27.6l0.1-0.2C101.9 21.9 109.2 9.4 115.1 0H113.7z" class="a"/><path d="M123.2 0c-10 15.5-20.8 36.4-21.9 38.7 -11.3 8-23.3 29.1-24.8 31.9 -9.6 1-36.2 21-38.9 23.1C31.1 92.9 11.9 95.1 0 96.5v1.2c12-1.5 31.6-3.7 37.5-2.9l0.2 0 0.2-0.1c0.3-0.2 29.6-22.4 38.8-23l0.3 0 0.2-0.3c0.1-0.2 13.1-23.7 24.7-31.8l0.2-0.2c0.2-0.3 11.9-23.2 22.4-39.4H123.2z" class="a"/><path d="M138.4 0c-11.7 16-22.2 40.3-23.5 43.4 -9.4 2.9-29.3 31.9-31.3 34.9 -9.9 1.5-36.7 22.1-40 24.8 -6.8-3.5-29.8-0.4-43.5 1.8v1.2c13.8-2.3 37.3-5.4 43.3-1.8l0.4 0.2 0.3-0.3c0.3-0.2 30.2-23.6 40-24.8l0.3 0 0.2-0.2c0.2-0.3 21.9-32.5 31.1-34.7l0.3-0.1 0.1-0.3c0.1-0.4 11.6-27.3 24.1-44.1H138.4z" class="a"/><path d="M154.2 0c-14 18-27.9 46.1-29.3 48.8 -16.3 11.3-33.3 36.7-34.9 39C77.3 92 48.9 110.9 46.3 112.7c-9.3 0-33.1 2.4-46.3 3.8v1.2c13.3-1.4 37.4-3.8 46.5-3.8h0.2l0.2-0.1c0.3-0.2 30.9-20.8 43.7-24.8l0.2-0.1 0.1-0.2c0.2-0.3 17.9-27.3 34.8-39l0.1-0.1 0.1-0.1C126.2 49 141.2 18.5 155.8 0H154.2z" class="a"/><path d="M169.5 0c-13.6 18.1-29.4 52-30.9 55.3C117.8 67.2 100.1 94.6 98.4 97.3c-13.4 3.1-44.5 26.3-47.3 28.4 -11.9 0.5-38.1 4.4-51.1 6.5v1.2c12.9-2 39.5-6.1 51.3-6.5l0.2 0 0.1-0.1c0.3-0.2 33.9-25.5 47.2-28.4l0.2-0.1 0.1-0.2c0.2-0.3 18.6-29.7 40.1-41.9l0.2-0.1 0.1-0.2c0.2-0.5 17.4-37.6 31.3-56H169.5z" class="a"/><path d="M183.1 0c-7.6 14.8-20.5 41.6-25 61.9 -2.9 2-37.5 26.8-47.9 45.5 -2.8 0.9-29.8 9.5-55 29 -2.7 0.1-31 0.7-55.2 5v1.2c25.2-4.5 55.1-5.1 55.4-5.1l0.2 0 0.2-0.1c26.3-20.5 54.7-28.9 55-29l0.2-0.1 0.1-0.2c10.5-19.2 47.5-45.2 47.9-45.5l0.2-0.1 0-0.2c4.5-20.4 17.6-47.7 25.2-62.4H183.1z" class="a"/><path d="M196.1 0c-2.5 4.1-5.5 9.9-8.9 18.1 -8.3 20-12.1 51.3-12.5 55 -3.1 1.4-26.3 11.6-31.9 17.8 -5.6 6.2-20.5 28.3-22.4 31.2 -1.5 0-7.9 0.3-21.9 6C83.5 134.3 63.5 151.5 61.2 153.5c-2.5-0.5-21-3.9-33.1-1.7 -9.5 1.7-22 7-28 9.7v1.3c5.8-2.6 18.6-8 28.2-9.8 12.8-2.3 32.8 1.7 33 1.8l0.3 0.1 0.2-0.2c0.2-0.2 21.5-19 37.2-25.4 15.6-6.4 21.6-5.9 21.7-5.9l0.4 0 0.2-0.3c0.2-0.2 16.7-25 22.5-31.4 5.8-6.4 31.6-17.5 31.8-17.7l0.3-0.1 0-0.3c0-0.3 3.7-34 12.4-55 3.6-8.5 6.7-14.5 9.3-18.6H196.1z" class="a"/><path d="M207.1 0h-1.3c-4.5 11.9-10.6 31.1-9.9 44.5 1.1 19.1-1.9 36.8-2.3 39.3 -3.1 1.5-32 16-43.2 26 -11 9.9-17 20.4-17.8 21.9 -2.5 1.1-28.5 13-42 23.1 -13 9.7-21.1 14.6-22.3 15.3 -2.9-0.3-36.8-3.5-52.1-2.9 -7.3 0.3-12.6 1.3-16.2 2.3v1.3c3.6-1 8.9-2.1 16.3-2.3 15.8-0.6 51.8 2.9 52.1 3l0.2 0 0.2-0.1c0.1 0 8.5-4.9 22.6-15.5 14-10.5 41.7-22.9 42-23.1l0.2-0.1 0.1-0.2c0.1-0.1 6-11.3 17.7-21.8 11.7-10.5 42.8-25.8 43.2-26l0.3-0.1 0.1-0.3c0-0.2 3.6-19.3 2.4-39.9C196.4 31.1 202.7 11.8 207.1 0z" class="a"/><path d="M222.3 0h-1.2c-6.4 23.2-21 78.2-18.6 89.3 -3.6 2.6-35.1 25.6-59.3 52.3 -2.5 1.3-54.2 28.6-68.3 41.7 -3.8-0.5-43.9-5.5-74.8-0.5v1.2c32.1-5.2 74.5 0.5 74.9 0.6l0.3 0 0.2-0.2c14-13.1 67.8-41.4 68.4-41.7l0.2-0.1c25.5-28.1 59.2-52.2 59.5-52.4l0.3-0.2 -0.1-0.4C200.9 79.7 215.9 23.2 222.3 0z" class="a"/><path d="M235.5 0c-2.9 8.5-8.7 27-12.5 47.6 -5 26.4-6.9 46.2-7.1 48.7 -2.6 1.9-28.1 21.1-39.9 32.8 -11.4 11.5-17.7 23.8-18.7 25.7 -1.8 0.5-13.3 3.8-39.9 15.1 -26.8 11.4-38.3 20.7-40 22.1 -2.1-0.4-15.6-3-32.2-3 -3.9 0-7.7 0.1-11.3 0.4C14.4 191 3 193.8 0 194.6v1.2c2.3-0.7 13.8-3.6 34.1-5.2 3.6-0.3 7.4-0.4 11.2-0.4 17.8 0 32.1 3 32.2 3.1l0.3 0.1 0.2-0.2c0.1-0.1 11-9.9 39.9-22.1 29-12.3 39.8-15.1 39.9-15.1l0.3-0.1 0.1-0.3c0.1-0.1 6.3-13.4 18.6-25.6 12.3-12.3 39.7-32.7 40-32.9l0.2-0.2 0-0.3c0-0.2 1.8-20.8 7.1-48.9C228.1 26.9 234 8.3 236.8 0H235.5z" class="a"/><path d="M260.2 0c-1 3.3-7.1 22.5-16.7 38.5 -10.4 17.4-14.9 63.2-15.2 66.8 -1.1 1.5-12.3 16.4-26.5 26.4 -14.3 10.1-28.8 35.5-30.3 38.2 -2.4 0.6-20.5 4.9-34.6 11.6 -14.5 6.8-50 22.9-52.4 24 -2.3-0.1-31.9-0.8-48.9 0.9 -16.7 1.7-32.7 5.7-34.6 6.2 -0.2-0.1-0.6-0.2-1.2-0.4v1.3c0.6 0.2 0.9 0.3 0.9 0.3l0.2 0.1 0.2 0c0.2 0 17.1-4.5 34.6-6.2 17.6-1.8 48.5-0.9 48.9-0.9l0.1 0 0.1-0.1c0.4-0.2 37.5-17 52.5-24 14.9-7 34.4-11.5 34.6-11.5l0.3-0.1 0.1-0.2c0.2-0.3 15.2-27.6 30.1-38.1 15-10.6 26.7-26.7 26.8-26.8l0.1-0.1 0-0.2c0-0.5 4.6-49 15-66.5C254.7 22.3 260.9 2 261.5 0H260.2z" class="a"/><path d="M301.1 0h-1.4c2 3.5 3.5 5.8 4.1 6.8 -3 2.6-22.3 19.6-36.2 42.4 -14.4 23.7-21.6 63.1-22.3 66.7 -1.8 1.2-14.2 9.4-24.9 25.8 -10.8 16.6-17.1 46.8-17.8 50.5 -4.6 1-49.2 11-73.5 16.8 -23.7 5.7-34.9 16.1-36.5 17.7 -3.7-0.6-40.5-6.2-53.2-6.2 -12.7 0-33.7 7.8-36.4 8.8 -0.4-0.2-1.5-0.8-3-1.6v1.3c1.7 0.9 2.6 1.4 2.6 1.4l0.2 0.1 0.3-0.1c0.2-0.1 23.2-8.9 36.3-8.9 13.1 0 52.9 6.2 53.3 6.2l0.3 0.1 0.2-0.2c0.1-0.1 10.8-11.5 36.2-17.6 25.5-6.2 73.4-16.8 73.8-16.9l0.4-0.1 0.1-0.4c0.1-0.3 6.3-33 17.7-50.5 11.4-17.5 24.6-25.5 24.7-25.6l0.2-0.1 0-0.3c0.1-0.4 7.3-42 22.2-66.5 14.9-24.5 36.1-42.3 36.3-42.4l0.4-0.3 -0.3-0.4C305 6.5 303.4 4.1 301.1 0z" class="a"/><path d="M291.8 144.2c-0.1 0.1-14.5 10.1-24.2 26.9 -9.3 16-21.1 57.2-22.2 61.2 -3 0.9-26.6 7.5-63.7 14.1 -37.5 6.7-56.6 22.9-58.8 24.9 -3.6-0.5-40.6-5.5-70.9-8.9 -29.9-3.3-46.2 6.6-48.2 8 -0.5-0.1-1.7-0.4-3.7-0.8v1.2c2.4 0.6 3.7 0.8 3.7 0.8l0.3 0.1 0.2-0.2c0.2-0.1 16.2-11.4 47.6-7.9 31.7 3.5 70.8 8.8 71.2 8.9l0.3 0 0.2-0.2c0.2-0.2 19-17.8 58.4-24.8 39.6-7 63.9-14.2 64.1-14.3l0.3-0.1 0.1-0.3c0.1-0.4 12.5-44.6 22.2-61.2 9.6-16.6 23.7-26.4 23.8-26.5L291.8 144.2z" class="a"/><path d="M271.8 0c-11.9 30.7-14 116.6-14.1 121.3 -2.3 3-36.4 47.3-41.7 82.4 -4 0.4-32.3 3.8-59.5 24.7l0.7 0.9c28.9-22.2 59-24.5 59.3-24.5l0.5 0 0.1-0.5c5.3-35.9 41.3-82 41.7-82.5l0.1-0.2 0-0.2c0-0.9 1.9-90.8 14.1-121.6H271.8z" class="a"/></g></svg>