<svg xmlns="http://www.w3.org/2000/svg" viewBox="0 0 465 465"><path d="M257.6 133h-50.3c-11.7 0-21.2 9.5-21.2 21.2v64.1c0 11.4 9 20.7 20.3 21.1h52.1c11.3-0.5 20.3-9.7 20.3-21.1v-64C278.8 142.5 269.3 133 257.6 133z" fill="#6ECDFB"/><path d="M258.5 239.4h-52.1c-29.7 10.7-51 39.1-51 72.5 0 42.5 34.5 77 77 77s77-34.5 77-77C309.5 278.5 288.3 250.1 258.5 239.4z" fill="#1895C2"/><path d="M445.4 277.7c-1-36.4-9.4-62.2-9.7-63.2 -0.9-2.7-3.3-4.7-6.1-5.1l-143.2-19.1v-7.4h118.1c3.3 0 6.1-2.1 7.1-5.2 0.3-1 8.1-25.7 8.8-59.6 0.9-45.1-11.5-85-35.9-115.2 -2.6-3.2-7.3-3.7-10.5-1.1 -3.2 2.6-3.7 7.3-1.1 10.5 22.4 27.8 33.4 63.1 32.6 105.1 -0.4 23-4.4 41.8-6.7 50.5H286.3v-6.7l71.1-13.6c3-0.6 5.4-3 6-6 0.2-0.9 3.9-21.9 0.6-49.2 -4.5-36.6-19.7-67.2-44-88.4 -3.1-2.7-7.9-2.4-10.6 0.7 -2.7 3.1-2.4 7.9 0.7 10.6 21.7 18.9 34.8 45.3 38.9 78.5 2.2 17.7 1.1 32.7 0.3 40.1l-64.2 12.2c-3.5-11.8-14.5-20.5-27.5-20.5h-0.8v-18.1c0-4.1-3.4-7.5-7.5-7.5s-7.5 3.4-7.5 7.5v18.1h-18.7v-18.1c0-4.1-3.4-7.5-7.5-7.5s-7.5 3.4-7.5 7.5v18.1h-0.8c-13 0-24 8.7-27.5 20.5l-64.2-12.2c-0.8-7.4-1.9-22.5 0.3-40.1 4.1-33.1 17.2-59.5 38.9-78.5 3.1-2.7 3.4-7.5 0.7-10.6 -2.7-3.1-7.5-3.4-10.6-0.7 -24.3 21.2-39.6 51.8-44 88.4 -3.3 27.4 0.4 48.4 0.6 49.2 0.6 3 2.9 5.4 6 6l71.1 13.6v6.7H66.3c-5.2-20.6-20.5-98 25.9-155.6 2.6-3.2 2.1-7.9-1.1-10.5 -3.2-2.6-7.9-2.1-10.5 1.1 -24.4 30.2-36.8 70.1-35.9 115.2 0.7 33.8 8.5 58.5 8.8 59.6 1 3.1 3.9 5.2 7.1 5.2h118.1v7.4L35.5 209.4c-2.8 0.4-5.2 2.4-6.1 5.1 -0.4 1.1-8.7 26.8-9.7 63.2 -0.9 33.8 4.7 83.4 36.5 128.1 1.5 2.1 3.8 3.1 6.1 3.1 1.5 0 3-0.5 4.3-1.4 3.4-2.4 4.2-7.1 1.8-10.5 -29.3-41.2-34.6-87.2-33.8-118.5 0.6-25.9 5.4-46.3 7.7-55l136.4-18.2v6.7l-60.4 22.3c-2.6 0.9-4.4 3.2-4.8 5.9 -0.2 1.4-5.3 34.5-1.6 78.5 3.4 40.9 15.4 99 53.2 143.7 1.5 1.8 3.6 2.7 5.7 2.7 1.7 0 3.4-0.6 4.8-1.8 3.2-2.7 3.6-7.4 0.9-10.6 -35.1-41.6-46.4-96.3-49.7-134.9 -2.8-33.4-0.3-60.8 0.9-71l52.5-19.3c1.6 4.8 4.5 9 8.2 12.3 -24.7 15.2-40.4 42.4-40.4 72.1 0 46.6 37.9 84.5 84.5 84.5 46.6 0 84.5-37.9 84.5-84.5 0-29.7-15.7-56.9-40.4-72.1 3.7-3.3 6.6-7.5 8.2-12.3l52.5 19.3c2.7 23.1 11.8 134.1-48.8 205.9 -2.7 3.2-2.3 7.9 0.9 10.6 1.4 1.2 3.1 1.8 4.8 1.8 2.1 0 4.3-0.9 5.7-2.7 37.7-44.7 49.7-102.8 53.2-143.7 3.7-44-1.4-77.1-1.6-78.5 -0.4-2.7-2.3-4.9-4.8-5.9l-60.4-22.3v-6.7l136.4 18.2c2.3 8.6 7.1 29.1 7.7 55 0.8 31.3-4.4 77.3-33.8 118.5 -2.4 3.4-1.6 8.1 1.8 10.5 1.3 0.9 2.8 1.4 4.3 1.4 2.3 0 4.7-1.1 6.1-3.1C440.7 361.1 446.3 311.4 445.4 277.7zM302 311.9c0 38.3-31.2 69.5-69.5 69.5s-69.5-31.2-69.5-69.5c0-29.3 18.5-55.5 46-65.4 3.4-1.2 5.4-4.6 4.9-8.2 -0.5-3.5-3.5-6.2-7.1-6.4 -7.3-0.3-13.1-6.3-13.1-13.6v-63.5c0 0 0-0.6 0-0.6 0-7.5 6.1-13.7 13.7-13.7h50.3c7.5 0 13.7 6.1 13.7 13.7v0.6c0 0 0 63.5 0 63.5 0 7.3-5.7 13.3-13 13.6h-21.8c-4.1 0-7.5 3.4-7.5 7.5s3.4 7.5 7.5 7.5h20.7C284 257.1 302 283 302 311.9z" fill="#591200"/></svg>